# xmcd
#
# Track frame offsets:
#	150
#	15365
#	28117
#	35877
#	44844
#	55884
#	66107
#	79484
#	90931
#	105285
#	117239
#	127322
#	141669
#	151782
#	160504
#	170094
#	179043
#	196336
#	204668
#	219032
#	227820
#	235153
#	245236
#	257953
#
# Disc length: 3568 seconds
#
# Revision: 0
# Processed by: cddbd v1.5.1PL2 Copyright (c) Steve Scherf et al.
# Submitted via: EasyCDDAExtractor 9.0.0.1
#
DISCID=5f0dee18
DTITLE=Countrysnakes - Hits
DYEAR=2006
DGENRE=Country
TTITLE0=Dengang du var min
TTITLE1=Jeg vet
TTITLE2=Tennessee waltz
TTITLE3=Gi meg et tegn på dine drømmer
TTITLE4=Let's sing our song
TTITLE5=Sammen igjen
TTITLE6=Cottonfields
TTITLE7=Mitt liv er countrymusikk
TTITLE8=Back on my mind again
TTITLE9=She thinks I still care
TTITLE10=Nr. 44
TTITLE11=Åtte timers arbeidsdag
TTITLE12=Roll on big mama
TTITLE13=Vis deg på byen en kveld
TTITLE14=Adios Amigo
TTITLE15=Nå er det over
TTITLE16=Silver wings
TTITLE17=Bare du synes om meg
TTITLE18=Vær så snill
TTITLE19=På loffen nok en gang
TTITLE20=Billy Boy
TTITLE21=Skylden må vi dele begge to
TTITLE22=Tro meg
TTITLE23=Wasted days and wasted nights
EXTD=
EXTT0=
EXTT1=
EXTT2=
EXTT3=
EXTT4=
EXTT5=
EXTT6=
EXTT7=
EXTT8=
EXTT9=
EXTT10=
EXTT11=
EXTT12=
EXTT13=
EXTT14=
EXTT15=
EXTT16=
EXTT17=
EXTT18=
EXTT19=
EXTT20=
EXTT21=
EXTT22=
EXTT23=
PLAYORDER=
